<mxfile host="app.diagrams.net" modified="2023-04-19T16:41:07.839Z" agent="Mozilla/5.0 (Windows NT 10.0; Win64; x64) AppleWebKit/537.36 (KHTML, like Gecko) Chrome/112.0.0.0 Safari/537.36" etag="O9iqMoNdXArsj37K7r6K" version="21.2.0" type="github">
  <diagram name="Página-1" id="NKnsE4s0T0iIRiIimQ-7">
    <mxGraphModel dx="989" dy="527" grid="1" gridSize="10" guides="1" tooltips="1" connect="1" arrows="1" fold="1" page="1" pageScale="1" pageWidth="827" pageHeight="1169" math="0" shadow="0">
      <root>
        <mxCell id="0" />
        <mxCell id="1" parent="0" />
        <mxCell id="aOtO3V1xlYk4eKAfTkUF-7" value="" style="edgeStyle=orthogonalEdgeStyle;rounded=0;orthogonalLoop=1;jettySize=auto;html=1;" parent="1" source="aOtO3V1xlYk4eKAfTkUF-4" target="aOtO3V1xlYk4eKAfTkUF-5" edge="1">
          <mxGeometry relative="1" as="geometry" />
        </mxCell>
        <mxCell id="aOtO3V1xlYk4eKAfTkUF-4" value="Início" style="rounded=1;whiteSpace=wrap;html=1;fillColor=#0050ef;fontColor=#ffffff;strokeColor=#001DBC;" parent="1" vertex="1">
          <mxGeometry x="340" y="80" width="120" height="60" as="geometry" />
        </mxCell>
        <mxCell id="aOtO3V1xlYk4eKAfTkUF-20" style="edgeStyle=orthogonalEdgeStyle;rounded=0;orthogonalLoop=1;jettySize=auto;html=1;exitX=1;exitY=0.5;exitDx=0;exitDy=0;entryX=0;entryY=0.25;entryDx=0;entryDy=0;" parent="1" source="aOtO3V1xlYk4eKAfTkUF-5" target="aOtO3V1xlYk4eKAfTkUF-19" edge="1">
          <mxGeometry relative="1" as="geometry" />
        </mxCell>
        <mxCell id="wl2SYxxgVOb8bDt6XQLB-40" value="&lt;b&gt;Data&lt;/b&gt;" style="edgeStyle=orthogonalEdgeStyle;rounded=0;orthogonalLoop=1;jettySize=auto;html=1;exitX=0.5;exitY=1;exitDx=0;exitDy=0;entryX=0.5;entryY=0;entryDx=0;entryDy=0;endArrow=none;endFill=0;" edge="1" parent="1" source="aOtO3V1xlYk4eKAfTkUF-5" target="aOtO3V1xlYk4eKAfTkUF-11">
          <mxGeometry relative="1" as="geometry" />
        </mxCell>
        <mxCell id="aOtO3V1xlYk4eKAfTkUF-5" value="Aplicações&lt;br&gt;" style="rounded=0;whiteSpace=wrap;html=1;fillColor=#dae8fc;strokeColor=#6c8ebf;" parent="1" vertex="1">
          <mxGeometry x="340" y="210" width="120" height="60" as="geometry" />
        </mxCell>
        <mxCell id="wl2SYxxgVOb8bDt6XQLB-43" style="edgeStyle=orthogonalEdgeStyle;rounded=0;orthogonalLoop=1;jettySize=auto;html=1;exitX=1;exitY=0.5;exitDx=0;exitDy=0;entryX=0;entryY=0.5;entryDx=0;entryDy=0;entryPerimeter=0;" edge="1" parent="1" source="aOtO3V1xlYk4eKAfTkUF-8" target="wl2SYxxgVOb8bDt6XQLB-2">
          <mxGeometry relative="1" as="geometry" />
        </mxCell>
        <mxCell id="aOtO3V1xlYk4eKAfTkUF-8" value="&lt;br&gt;SCWSSCCommons&lt;br&gt;" style="rounded=0;whiteSpace=wrap;html=1;fillColor=#dae8fc;strokeColor=#6c8ebf;" parent="1" vertex="1">
          <mxGeometry x="315" y="425" width="170" height="60" as="geometry" />
        </mxCell>
        <mxCell id="wl2SYxxgVOb8bDt6XQLB-42" style="edgeStyle=orthogonalEdgeStyle;rounded=0;orthogonalLoop=1;jettySize=auto;html=1;exitX=0.5;exitY=1;exitDx=0;exitDy=0;entryX=0.5;entryY=0;entryDx=0;entryDy=0;" edge="1" parent="1" source="aOtO3V1xlYk4eKAfTkUF-11" target="aOtO3V1xlYk4eKAfTkUF-12">
          <mxGeometry relative="1" as="geometry" />
        </mxCell>
        <mxCell id="aOtO3V1xlYk4eKAfTkUF-11" value="" style="shape=parallelogram;html=1;strokeWidth=2;perimeter=parallelogramPerimeter;whiteSpace=wrap;rounded=1;arcSize=12;size=0.23;fillColor=#dae8fc;strokeColor=#6c8ebf;" parent="1" vertex="1">
          <mxGeometry x="320" y="335" width="160" height="50" as="geometry" />
        </mxCell>
        <mxCell id="aOtO3V1xlYk4eKAfTkUF-12" value="&amp;lt;&amp;lt; Service &amp;gt;&amp;gt;" style="text;html=1;strokeColor=none;fillColor=none;align=center;verticalAlign=middle;whiteSpace=wrap;rounded=0;" parent="1" vertex="1">
          <mxGeometry x="360" y="425" width="80" height="30" as="geometry" />
        </mxCell>
        <mxCell id="wl2SYxxgVOb8bDt6XQLB-18" value="" style="edgeStyle=orthogonalEdgeStyle;rounded=0;orthogonalLoop=1;jettySize=auto;html=1;entryX=1;entryY=0.5;entryDx=0;entryDy=0;entryPerimeter=0;" edge="1" parent="1" source="aOtO3V1xlYk4eKAfTkUF-19" target="wl2SYxxgVOb8bDt6XQLB-2">
          <mxGeometry relative="1" as="geometry" />
        </mxCell>
        <mxCell id="aOtO3V1xlYk4eKAfTkUF-19" value="Página (FE)&lt;br&gt;(frameworkReport)" style="rounded=0;whiteSpace=wrap;html=1;fillColor=#dae8fc;strokeColor=#6c8ebf;" parent="1" vertex="1">
          <mxGeometry x="610" y="230" width="110" height="60" as="geometry" />
        </mxCell>
        <mxCell id="aOtO3V1xlYk4eKAfTkUF-23" value="idApplication&lt;br style=&quot;font-size: 10px;&quot;&gt;idUser&lt;br style=&quot;font-size: 10px;&quot;&gt;file&lt;br&gt;" style="text;html=1;align=center;verticalAlign=middle;whiteSpace=wrap;rounded=0;fontSize=10;" parent="1" vertex="1">
          <mxGeometry x="336.25" y="345" width="130" height="30" as="geometry" />
        </mxCell>
        <mxCell id="aOtO3V1xlYk4eKAfTkUF-26" value="&lt;font style=&quot;font-size: 10px;&quot;&gt;cookie&lt;/font&gt;" style="text;html=1;strokeColor=none;fillColor=none;align=center;verticalAlign=middle;whiteSpace=wrap;rounded=0;" parent="1" vertex="1">
          <mxGeometry x="540" y="220" width="60" height="30" as="geometry" />
        </mxCell>
        <mxCell id="wl2SYxxgVOb8bDt6XQLB-38" value="" style="edgeStyle=orthogonalEdgeStyle;rounded=0;orthogonalLoop=1;jettySize=auto;html=1;" edge="1" parent="1" source="wl2SYxxgVOb8bDt6XQLB-2" target="wl2SYxxgVOb8bDt6XQLB-37">
          <mxGeometry relative="1" as="geometry" />
        </mxCell>
        <mxCell id="wl2SYxxgVOb8bDt6XQLB-2" value="DBFWK" style="strokeWidth=2;html=1;shape=mxgraph.flowchart.database;whiteSpace=wrap;fillColor=#f5f5f5;fontColor=#333333;strokeColor=#666666;" vertex="1" parent="1">
          <mxGeometry x="580" y="430" width="60" height="60" as="geometry" />
        </mxCell>
        <mxCell id="wl2SYxxgVOb8bDt6XQLB-9" style="edgeStyle=orthogonalEdgeStyle;rounded=0;orthogonalLoop=1;jettySize=auto;html=1;exitX=0;exitY=0.5;exitDx=0;exitDy=0;exitPerimeter=0;endArrow=none;endFill=0;entryX=0;entryY=0.5;entryDx=0;entryDy=0;" edge="1" parent="1" source="wl2SYxxgVOb8bDt6XQLB-8" target="aOtO3V1xlYk4eKAfTkUF-8">
          <mxGeometry relative="1" as="geometry">
            <mxPoint x="360" y="380" as="targetPoint" />
            <Array as="points">
              <mxPoint x="160" y="455" />
            </Array>
          </mxGeometry>
        </mxCell>
        <mxCell id="wl2SYxxgVOb8bDt6XQLB-8" value="" style="strokeWidth=2;html=1;shape=mxgraph.flowchart.annotation_2;align=left;labelPosition=right;pointerEvents=1;direction=west;" vertex="1" parent="1">
          <mxGeometry x="110" y="405" width="50" height="100" as="geometry" />
        </mxCell>
        <mxCell id="wl2SYxxgVOb8bDt6XQLB-10" value="&lt;h1 style=&quot;font-size: 14px;&quot;&gt;&lt;font style=&quot;font-size: 14px;&quot;&gt;Lib&lt;/font&gt;&lt;/h1&gt;" style="text;html=1;strokeColor=none;fillColor=none;spacing=5;spacingTop=-20;whiteSpace=wrap;overflow=hidden;rounded=0;fontSize=14;" vertex="1" parent="1">
          <mxGeometry x="210" y="432.5" width="40" height="15" as="geometry" />
        </mxCell>
        <mxCell id="wl2SYxxgVOb8bDt6XQLB-11" value="SCMicrosoft" style="text;html=1;strokeColor=none;fillColor=none;align=center;verticalAlign=middle;whiteSpace=wrap;rounded=0;" vertex="1" parent="1">
          <mxGeometry x="40" y="385" width="60" height="30" as="geometry" />
        </mxCell>
        <mxCell id="wl2SYxxgVOb8bDt6XQLB-12" value="Daemon2" style="text;html=1;strokeColor=none;fillColor=none;align=center;verticalAlign=middle;whiteSpace=wrap;rounded=0;" vertex="1" parent="1">
          <mxGeometry x="50" y="490" width="60" height="30" as="geometry" />
        </mxCell>
        <mxCell id="wl2SYxxgVOb8bDt6XQLB-25" value="Sim" style="edgeStyle=orthogonalEdgeStyle;rounded=0;orthogonalLoop=1;jettySize=auto;html=1;" edge="1" parent="1" source="wl2SYxxgVOb8bDt6XQLB-19" target="wl2SYxxgVOb8bDt6XQLB-24">
          <mxGeometry relative="1" as="geometry" />
        </mxCell>
        <mxCell id="wl2SYxxgVOb8bDt6XQLB-27" value="Não" style="edgeStyle=orthogonalEdgeStyle;rounded=0;orthogonalLoop=1;jettySize=auto;html=1;exitX=1;exitY=0.5;exitDx=0;exitDy=0;endArrow=none;endFill=0;entryX=0;entryY=0.5;entryDx=0;entryDy=0;" edge="1" parent="1" source="wl2SYxxgVOb8bDt6XQLB-19" target="wl2SYxxgVOb8bDt6XQLB-37">
          <mxGeometry relative="1" as="geometry">
            <mxPoint x="500" y="460" as="targetPoint" />
            <Array as="points">
              <mxPoint x="517" y="570" />
              <mxPoint x="510" y="570" />
              <mxPoint x="510" y="555" />
            </Array>
          </mxGeometry>
        </mxCell>
        <mxCell id="wl2SYxxgVOb8bDt6XQLB-19" value="Ficheiro tem &lt;br&gt;mais de x dias?" style="rhombus;whiteSpace=wrap;html=1;fillColor=#fff2cc;strokeColor=#d6b656;" vertex="1" parent="1">
          <mxGeometry x="400" y="620" width="117.5" height="110" as="geometry" />
        </mxCell>
        <mxCell id="wl2SYxxgVOb8bDt6XQLB-29" style="edgeStyle=orthogonalEdgeStyle;rounded=0;orthogonalLoop=1;jettySize=auto;html=1;exitX=0.5;exitY=1;exitDx=0;exitDy=0;entryX=0.5;entryY=0;entryDx=0;entryDy=0;" edge="1" parent="1" source="wl2SYxxgVOb8bDt6XQLB-19" target="wl2SYxxgVOb8bDt6XQLB-28">
          <mxGeometry relative="1" as="geometry" />
        </mxCell>
        <mxCell id="wl2SYxxgVOb8bDt6XQLB-24" value="Elimina o ficheiro" style="rounded=0;whiteSpace=wrap;html=1;fillColor=#dae8fc;strokeColor=#6c8ebf;" vertex="1" parent="1">
          <mxGeometry x="150" y="670" width="120" height="60" as="geometry" />
        </mxCell>
        <mxCell id="wl2SYxxgVOb8bDt6XQLB-28" value="Fim&lt;br&gt;" style="rounded=1;whiteSpace=wrap;html=1;fillColor=#0050ef;fontColor=#ffffff;strokeColor=#001DBC;" vertex="1" parent="1">
          <mxGeometry x="341.25" y="820" width="120" height="60" as="geometry" />
        </mxCell>
        <mxCell id="wl2SYxxgVOb8bDt6XQLB-37" value="Daemon" style="rounded=0;whiteSpace=wrap;html=1;fillColor=#dae8fc;strokeColor=#6c8ebf;" vertex="1" parent="1">
          <mxGeometry x="570" y="525" width="120" height="60" as="geometry" />
        </mxCell>
      </root>
    </mxGraphModel>
  </diagram>
</mxfile>
